<svg width="420" height="178" viewBox="0 0 420 178" fill="none" xmlns="http://www.w3.org/2000/svg">
<path fill-rule="evenodd" clip-rule="evenodd" d="M196.098 2.5C196.098 3.88071 194.979 5 193.598 5C192.217 5 191.098 3.88071 191.098 2.5C191.098 1.11929 192.217 0 193.598 0C194.979 0 196.098 1.11929 196.098 2.5ZM195.098 2.5C195.098 3.32843 194.426 4 193.598 4C192.77 4 192.098 3.32843 192.098 2.5C192.098 1.67157 192.77 1 193.598 1C194.426 1 195.098 1.67157 195.098 2.5Z" fill="#002033"/>
<path d="M311.098 17C311.098 19.2091 309.307 21 307.098 21C304.889 21 303.098 19.2091 303.098 17C303.098 14.7909 304.889 13 307.098 13C309.307 13 311.098 14.7909 311.098 17Z" fill="#002033"/>
<path fill-rule="evenodd" clip-rule="evenodd" d="M67.098 21H103.598L101.16 26H103.598L66.0487 103H92.098V73H127.098V101H143.098V135H127.098V156H91.098V135H28.098V99L67.098 21ZM94.098 105V75H125.098V103H141.098V128H125.098V149H93.098V128H30.098V99.4721L68.3341 23H100.398L62.098 101.538V105H94.098Z" fill="#002033"/>
<path fill-rule="evenodd" clip-rule="evenodd" d="M324.598 21H361.098L358.66 26H361.098L323.549 103H349.598V73H384.598V101H400.598V135H384.598V156H348.598V135H285.598V99L324.598 21ZM319.598 105H351.598V75H382.598V103H398.598V128H382.598V149H350.598V128H287.598V99.4721L325.834 23H357.898L319.598 101.538V105Z" fill="#002033"/>
<path d="M214.286 72.5245C213.152 71.7686 213.107 70.1186 214.197 69.3009L215.398 68.4C215.619 68.2343 215.664 67.9209 215.498 67.7C215.332 67.4791 215.019 67.4343 214.798 67.6L213.597 68.5009C211.955 69.7326 212.024 72.2179 213.732 73.3565L213.821 73.416C214.951 74.1695 214.951 75.8304 213.821 76.5839C212.097 77.7333 212.097 80.2666 213.821 81.416C214.951 82.1695 214.951 83.8304 213.821 84.5839C212.097 85.7333 212.097 88.2666 213.821 89.416C214.951 90.1695 214.951 91.8304 213.821 92.5839C212.097 93.7333 212.097 96.2666 213.821 97.416C214.951 98.1695 214.951 99.8304 213.821 100.584C212.097 101.733 212.097 104.267 213.821 105.416L213.91 105.475C215.044 106.231 215.09 107.881 213.999 108.699L212.798 109.6C212.577 109.766 212.532 110.079 212.698 110.3C212.864 110.521 213.177 110.566 213.398 110.4L214.599 109.499C216.242 108.267 216.173 105.782 214.465 104.643L214.375 104.584C213.245 103.83 213.245 102.17 214.375 101.416C216.099 100.267 216.099 97.7333 214.375 96.5839C213.245 95.8304 213.245 94.1695 214.375 93.416C216.099 92.2666 216.099 89.7333 214.375 88.5839C213.245 87.8304 213.245 86.1695 214.375 85.416C216.099 84.2666 216.099 81.7333 214.375 80.5839C213.245 79.8304 213.245 78.1695 214.375 77.416C216.099 76.2666 216.099 73.7333 214.375 72.5839L214.286 72.5245Z" fill="#002033"/>
<path fill-rule="evenodd" clip-rule="evenodd" d="M194.098 85.5C194.098 99.2587 195.918 109.506 199.411 116.385C202.972 123.399 208.345 127 215.098 127C221.851 127 227.225 123.399 230.785 116.385C234.278 109.506 236.098 99.2587 236.098 85.5C236.098 71.6973 234.278 61.4489 230.784 54.5794C227.221 47.5727 221.846 44 215.098 44C208.35 44 202.975 47.5727 199.412 54.5794C195.918 61.4489 194.098 71.6973 194.098 85.5ZM196.119 87.9961C196.553 113.527 203.719 125 215.098 125C226.477 125 233.643 113.527 234.077 87.9959C233.643 62.3884 226.477 51 215.098 51C203.719 51 196.553 62.3884 196.119 87.9961Z" fill="#002033"/>
<path fill-rule="evenodd" clip-rule="evenodd" d="M157.123 88.0004C157.106 87.1733 157.098 86.3398 157.098 85.5C157.098 42.1406 179.598 17 215.098 17C250.599 17 273.098 42.1406 273.098 85.5C273.098 86.3398 273.09 87.1733 273.073 88.0005L273.073 87.9978C273.09 88.825 273.098 89.6591 273.098 90.5C273.098 133.498 250.87 160 215.098 160C179.327 160 157.098 133.588 157.098 90.5C157.098 89.6599 157.106 88.8267 157.123 88.0004ZM271.098 85.5C271.098 106.674 265.625 123.548 255.978 135.092C246.366 146.594 232.451 153 215.098 153C197.743 153 183.829 146.615 174.218 135.125C164.572 123.593 159.098 106.72 159.098 85.5C159.098 64.1477 164.637 47.5362 174.302 36.294C183.935 25.0883 197.85 19 215.098 19C232.346 19 246.261 25.0883 255.894 36.294C265.559 47.5362 271.098 64.1477 271.098 85.5Z" fill="#002033"/>
<path d="M396.098 168C398.307 168 400.098 166.209 400.098 164C400.098 161.791 398.307 160 396.098 160C393.889 160 392.098 161.791 392.098 164C392.098 166.209 393.889 168 396.098 168Z" fill="#002033"/>
<path d="M160.098 154C160.098 156.209 158.307 158 156.098 158C153.889 158 152.098 156.209 152.098 154C152.098 151.791 153.889 150 156.098 150C158.307 150 160.098 151.791 160.098 154Z" fill="#002033"/>
<path d="M22.098 30C24.3072 30 26.098 28.2091 26.098 26C26.098 23.7909 24.3072 22 22.098 22C19.8889 22 18.098 23.7909 18.098 26C18.098 28.2091 19.8889 30 22.098 30Z" fill="#002033"/>
<path fill-rule="evenodd" clip-rule="evenodd" d="M111.598 58C112.979 58 114.098 56.8807 114.098 55.5C114.098 54.1193 112.979 53 111.598 53C110.217 53 109.098 54.1193 109.098 55.5C109.098 56.8807 110.217 58 111.598 58ZM111.598 57C112.426 57 113.098 56.3284 113.098 55.5C113.098 54.6716 112.426 54 111.598 54C110.77 54 110.098 54.6716 110.098 55.5C110.098 56.3284 110.77 57 111.598 57Z" fill="#002033"/>
<path fill-rule="evenodd" clip-rule="evenodd" d="M278.098 134.5C278.098 135.881 276.979 137 275.598 137C274.217 137 273.098 135.881 273.098 134.5C273.098 133.119 274.217 132 275.598 132C276.979 132 278.098 133.119 278.098 134.5ZM277.098 134.5C277.098 135.328 276.427 136 275.598 136C274.77 136 274.098 135.328 274.098 134.5C274.098 133.672 274.77 133 275.598 133C276.427 133 277.098 133.672 277.098 134.5Z" fill="#002033"/>
<path fill-rule="evenodd" clip-rule="evenodd" d="M407.598 45C408.979 45 410.098 43.8807 410.098 42.5C410.098 41.1193 408.979 40 407.598 40C406.217 40 405.098 41.1193 405.098 42.5C405.098 43.8807 406.217 45 407.598 45ZM407.598 44C408.427 44 409.098 43.3284 409.098 42.5C409.098 41.6716 408.427 41 407.598 41C406.77 41 406.098 41.6716 406.098 42.5C406.098 43.3284 406.77 44 407.598 44Z" fill="#002033"/>
<path fill-rule="evenodd" clip-rule="evenodd" d="M34.598 171C35.9787 171 37.098 169.881 37.098 168.5C37.098 167.119 35.9787 166 34.598 166C33.2173 166 32.098 167.119 32.098 168.5C32.098 169.881 33.2173 171 34.598 171ZM34.598 170C35.4265 170 36.098 169.328 36.098 168.5C36.098 167.672 35.4265 167 34.598 167C33.7696 167 33.098 167.672 33.098 168.5C33.098 169.328 33.7696 170 34.598 170Z" fill="#002033"/>
<path d="M102.574 4.18814C103.329 3.05426 104.979 3.00846 105.797 4.09867L106.698 5.29997C106.864 5.52089 107.177 5.56566 107.398 5.39997C107.619 5.23429 107.664 4.92089 107.498 4.69997L106.597 3.49867C105.365 1.8565 102.88 1.92548 101.741 3.63344L101.682 3.72262C100.928 4.85291 99.2676 4.85291 98.5141 3.72262C97.3647 1.9986 94.8314 1.9986 93.682 3.72262C92.9285 4.85291 91.2676 4.85291 90.5141 3.72262C89.3647 1.9986 86.8314 1.9986 85.682 3.72262C84.9285 4.85291 83.2676 4.85291 82.5141 3.72262C81.3647 1.9986 78.8314 1.9986 77.682 3.72262C76.9285 4.85291 75.2676 4.85291 74.5141 3.72262C73.3647 1.9986 70.8314 1.9986 69.682 3.72262L69.6226 3.8118C68.8666 4.94569 67.2167 4.99148 66.399 3.90127L65.498 2.69997C65.3323 2.47906 65.0189 2.43429 64.798 2.59997C64.5771 2.76566 64.5323 3.07906 64.698 3.29997L65.599 4.50127C66.8306 6.14345 69.316 6.07446 70.4546 4.3665L70.5141 4.27732C71.2676 3.14703 72.9285 3.14703 73.682 4.27732C74.8314 6.00135 77.3647 6.00135 78.5141 4.27732C79.2676 3.14703 80.9285 3.14703 81.682 4.27732C82.8314 6.00135 85.3647 6.00135 86.5141 4.27732C87.2676 3.14703 88.9285 3.14703 89.682 4.27732C90.8314 6.00135 93.3647 6.00135 94.5141 4.27732C95.2676 3.14703 96.9285 3.14703 97.682 4.27732C98.8314 6.00135 101.365 6.00135 102.514 4.27732L102.574 4.18814Z" fill="#002033"/>
<path d="M332.797 152.099C331.979 151.008 330.33 151.054 329.574 152.188L329.514 152.277C328.365 154.001 325.831 154.001 324.682 152.277C323.929 151.147 322.268 151.147 321.514 152.277C320.365 154.001 317.831 154.001 316.682 152.277C315.929 151.147 314.268 151.147 313.514 152.277C312.365 154.001 309.831 154.001 308.682 152.277C307.929 151.147 306.268 151.147 305.514 152.277C304.365 154.001 301.831 154.001 300.682 152.277C299.929 151.147 298.268 151.147 297.514 152.277L297.455 152.367C296.316 154.074 293.831 154.143 292.599 152.501L291.698 151.3C291.532 151.079 291.577 150.766 291.798 150.6C292.019 150.434 292.332 150.479 292.498 150.7L293.399 151.901C294.217 152.991 295.867 152.946 296.623 151.812L296.682 151.723C297.831 149.999 300.365 149.999 301.514 151.723C302.268 152.853 303.929 152.853 304.682 151.723C305.831 149.999 308.365 149.999 309.514 151.723C310.268 152.853 311.929 152.853 312.682 151.723C313.831 149.999 316.365 149.999 317.514 151.723C318.268 152.853 319.929 152.853 320.682 151.723C321.831 149.999 324.365 149.999 325.514 151.723C326.268 152.853 327.929 152.853 328.682 151.723L328.742 151.633C329.88 149.925 332.366 149.856 333.597 151.499L334.498 152.7C334.664 152.921 334.619 153.234 334.398 153.4C334.177 153.566 333.864 153.521 333.698 153.3L332.797 152.099Z" fill="#002033"/>
<path d="M23.4987 59.826C22.8947 58.6044 23.68 57.1525 25.033 56.9895L26.5238 56.8099C26.798 56.7769 26.9935 56.5279 26.9604 56.2537C26.9274 55.9795 26.6784 55.7841 26.4042 55.8171L24.9134 55.9967C22.8754 56.2423 21.6925 58.4291 22.6023 60.2692L22.6498 60.3652C23.2519 61.583 22.4215 63.0213 21.0658 63.1088C18.9981 63.2421 17.7314 65.4361 18.6498 67.2935C19.2519 68.5112 18.4215 69.9496 17.0658 70.037C14.9981 70.1703 13.7314 72.3643 14.6498 74.2217C15.2519 75.4394 14.4215 76.8778 13.0658 76.9652C10.9981 77.0985 9.73143 79.2925 10.6498 81.1499C11.2519 82.3676 10.4215 83.806 9.06583 83.8934C6.99811 84.0267 5.73143 86.2207 6.6498 88.0781L6.69731 88.1741C7.30132 89.3957 6.516 90.8475 5.16302 91.0106L3.67218 91.1902C3.39802 91.2232 3.20254 91.4722 3.23557 91.7464C3.2686 92.0205 3.51763 92.216 3.79179 92.183L5.28263 92.0034C7.32062 91.7578 8.50354 89.571 7.59372 87.7309L7.54621 87.6348C6.94412 86.4171 7.77457 84.9787 9.13019 84.8913C11.1979 84.758 12.4646 82.564 11.5462 80.7066C10.9441 79.4889 11.7746 78.0505 13.1302 77.9631C15.1979 77.8298 16.4646 75.6358 15.5462 73.7784C14.9441 72.5607 15.7746 71.1223 17.1302 71.0349C19.1979 70.9016 20.4646 68.7076 19.5462 66.8502C18.9441 65.6325 19.7746 64.1941 21.1302 64.1067C23.1979 63.9734 24.4646 61.7794 23.5462 59.922L23.4987 59.826Z" fill="#002033"/>
<path d="M411.958 72.9991C412.15 71.65 410.951 70.5157 409.615 70.783L409.51 70.804C407.478 71.2104 405.687 69.419 406.093 67.3872C406.359 66.0552 405.185 64.8807 403.853 65.1471C401.821 65.5535 400.03 63.7621 400.436 61.7304C400.703 60.3983 399.528 59.2239 398.196 59.4903C396.164 59.8966 394.373 58.1053 394.779 56.0735C395.046 54.7415 393.871 53.567 392.539 53.8334C390.507 54.2398 388.716 52.4484 389.122 50.4167C389.389 49.0846 388.214 47.9102 386.882 48.1766L386.777 48.1976C384.764 48.6002 382.958 46.8916 383.249 44.8595L383.461 43.3729C383.5 43.0996 383.753 42.9096 384.027 42.9487C384.3 42.9877 384.49 43.241 384.451 43.5144L384.238 45.0009C384.046 46.35 385.245 47.4843 386.581 47.217L386.686 47.196C388.718 46.7896 390.509 48.581 390.103 50.6128C389.837 51.9448 391.011 53.1193 392.343 52.8529C394.375 52.4465 396.166 54.2378 395.76 56.2696C395.493 57.6017 396.668 58.7761 398 58.5097C400.032 58.1033 401.823 59.8947 401.417 61.9265C401.15 63.2585 402.325 64.433 403.657 64.1666C405.689 63.7602 407.48 65.5516 407.074 67.5833C406.807 68.9154 407.982 70.0898 409.314 69.8234L409.419 69.8024C411.432 69.3998 413.238 71.1084 412.947 73.1405L412.735 74.6271C412.696 74.9004 412.443 75.0904 412.169 75.0513C411.896 75.0123 411.706 74.759 411.745 74.4856L411.958 72.9991Z" fill="#002033"/>
<path d="M278.598 11.3074V7C278.598 6.72386 278.822 6.5 279.098 6.5C279.374 6.5 279.598 6.72386 279.598 7V11.3074C279.598 13.1381 278.484 14.7843 276.784 15.4642C275.464 15.9923 274.598 17.2708 274.598 18.6926V23C274.598 23.2761 274.374 23.5 274.098 23.5C273.822 23.5 273.598 23.2761 273.598 23V18.6926C273.598 16.8619 274.713 15.2157 276.412 14.5358C277.732 14.0077 278.598 12.7292 278.598 11.3074Z" fill="#002033"/>
<path d="M60.598 161V165.307C60.598 166.729 59.7324 168.008 58.4123 168.536C56.7126 169.216 55.598 170.862 55.598 172.693V177C55.598 177.276 55.8219 177.5 56.098 177.5C56.3742 177.5 56.598 177.276 56.598 177V172.693C56.598 171.271 57.4636 169.992 58.7837 169.464C60.4835 168.784 61.598 167.138 61.598 165.307V161C61.598 160.724 61.3742 160.5 61.098 160.5C60.8219 160.5 60.598 160.724 60.598 161Z" fill="#002033"/>
<path d="M417.598 113.307V109C417.598 108.724 417.822 108.5 418.098 108.5C418.374 108.5 418.598 108.724 418.598 109V113.307C418.598 115.138 417.484 116.784 415.784 117.464C414.464 117.992 413.598 119.271 413.598 120.693V125C413.598 125.276 413.374 125.5 413.098 125.5C412.822 125.5 412.598 125.276 412.598 125V120.693C412.598 118.862 413.713 117.216 415.412 116.536C416.732 116.008 417.598 114.729 417.598 113.307Z" fill="#002033"/>
<path d="M183.405 169.5C184.827 169.5 186.106 170.366 186.634 171.686C187.314 173.385 188.96 174.5 190.791 174.5H195.098C195.374 174.5 195.598 174.276 195.598 174C195.598 173.724 195.374 173.5 195.098 173.5H190.791C189.369 173.5 188.09 172.634 187.562 171.314C186.882 169.615 185.236 168.5 183.405 168.5H179.098C178.822 168.5 178.598 168.724 178.598 169C178.598 169.276 178.822 169.5 179.098 169.5H183.405Z" fill="#002033"/>
</svg>
