<svg width="6" height="10" viewBox="0 0 6 10" fill="none" xmlns="http://www.w3.org/2000/svg">
<path fill-rule="evenodd" clip-rule="evenodd" d="M0.204708 0.886666C0.478069 0.613297 0.921275 0.613296 1.19464 0.886666L5.14673 4.83887C5.14914 4.84121 5.15153 4.84357 5.15391 4.84596C5.17117 4.86321 5.18733 4.88114 5.20241 4.89966C5.20493 4.90276 5.20743 4.90587 5.20989 4.909C5.42626 5.18372 5.40774 5.58306 5.15435 5.83645C5.14668 5.84413 5.13888 5.85158 5.13094 5.85882L1.1941 9.79546C0.92073 10.0688 0.47751 10.0688 0.204142 9.79546C-0.0692253 9.52211 -0.0692253 9.07891 0.204143 8.80556L3.66894 5.34095L0.204708 1.87662C-0.0686541 1.60325 -0.0686541 1.16004 0.204708 0.886666Z" fill="white"/>
</svg>
