<svg width="16" height="16" viewBox="0 0 16 16" fill="none" xmlns="http://www.w3.org/2000/svg">
<path fill-rule="evenodd" clip-rule="evenodd" d="M4.5 0C4.22386 0 4 0.223858 4 0.5V2H3C1.89543 2 1 2.89543 1 4V13C1 14.1046 1.89543 15 3 15H13C14.1046 15 15 14.1046 15 13V4C15 2.89543 14.1046 2 13 2H12V0.5C12 0.223858 11.7761 0 11.5 0C11.2239 0 11 0.223858 11 0.5V2H5V0.5C5 0.223858 4.77614 0 4.5 0ZM3 3H4V3.5C4 3.77614 4.22386 4 4.5 4C4.77614 4 5 3.77614 5 3.5V3H11V3.5C11 3.77614 11.2239 4 11.5 4C11.7761 4 12 3.77614 12 3.5V3H13C13.5523 3 14 3.44772 14 4V6H2V4C2 3.44772 2.44772 3 3 3ZM2 7V13C2 13.5523 2.44772 14 3 14H13C13.5523 14 14 13.5523 14 13V7H2Z" fill="#536D86"/>
<rect x="5" y="11" width="6" height="1" rx="0.5" fill="#536D86"/>
<rect x="5" y="9" width="6" height="1" rx="0.5" fill="#536D86"/>
</svg>
