<svg width="16" height="16" viewBox="0 0 16 16" fill="none" xmlns="http://www.w3.org/2000/svg">
<path d="M12.2005 3.80668C11.9405 3.54668 11.5205 3.54668 11.2605 3.80668L8.00047 7.06001L4.74047 3.80001C4.48047 3.54001 4.06047 3.54001 3.80047 3.80001C3.54047 4.06001 3.54047 4.48001 3.80047 4.74001L7.06047 8.00001L3.80047 11.26C3.54047 11.52 3.54047 11.94 3.80047 12.2C4.06047 12.46 4.48047 12.46 4.74047 12.2L8.00047 8.94001L11.2605 12.2C11.5205 12.46 11.9405 12.46 12.2005 12.2C12.4605 11.94 12.4605 11.52 12.2005 11.26L8.94047 8.00001L12.2005 4.74001C12.4538 4.48668 12.4538 4.06001 12.2005 3.80668Z" fill="black"/>
</svg>
