<svg width="24" height="24" viewBox="0 0 24 24" fill="none" xmlns="http://www.w3.org/2000/svg">
<g>
<path fill-rule="evenodd" clip-rule="evenodd" d="M17.6115 10.4557C17.6115 14.4077 14.4077 17.6115 10.4557 17.6115C6.50373 17.6115 3.3 14.4077 3.3 10.4557C3.3 6.50373 6.50373 3.3 10.4557 3.3C14.4077 3.3 17.6115 6.50373 17.6115 10.4557ZM15.9223 16.907C14.4483 18.1573 12.5401 18.9115 10.4557 18.9115C5.78576 18.9115 2 15.1257 2 10.4557C2 5.78576 5.78576 2 10.4557 2C15.1257 2 18.9115 5.78576 18.9115 10.4557C18.9115 12.54 18.1574 14.4481 16.9071 15.9222L20.7962 19.8112C21.0681 20.0832 21.0681 20.5241 20.7962 20.796C20.5242 21.068 20.0833 21.068 19.8114 20.796L15.9223 16.907ZM16.7763 16.0728L20.6554 19.9519C20.8496 20.1462 20.8496 20.4611 20.6554 20.6554C20.5697 20.741 20.4606 20.7889 20.3488 20.799C20.4607 20.7889 20.5698 20.741 20.6555 20.6554C20.8497 20.4611 20.8497 20.1462 20.6555 19.9519L16.7763 16.0728C16.7763 16.0728 16.7763 16.0728 16.7763 16.0728Z" fill="#7B8996"/>
</g>
</svg>
